<svg xmlns="http://www.w3.org/2000/svg" viewBox="0 0 400 300" width="400" height="300">
  <defs>
    <linearGradient id="bg-grad-2" x1="0%" y1="0%" x2="100%" y2="100%">
      <stop offset="0%" style="stop-color:#0a0a1a;stop-opacity:1" />
      <stop offset="50%" style="stop-color:#151530;stop-opacity:1" />
      <stop offset="100%" style="stop-color:#1f1f4a;stop-opacity:1" />
    </linearGradient>
    <linearGradient id="neon-cyan" x1="0%" y1="0%" x2="100%" y2="100%">
      <stop offset="0%" style="stop-color:#00ffff;stop-opacity:1" />
      <stop offset="100%" style="stop-color:#0080ff;stop-opacity:1" />
    </linearGradient>
    <linearGradient id="neon-green" x1="0%" y1="0%" x2="100%" y2="0%">
      <stop offset="0%" style="stop-color:#00ff80;stop-opacity:1" />
      <stop offset="100%" style="stop-color:#00ffff;stop-opacity:1" />
    </linearGradient>
    <filter id="glow-2">
      <feGaussianBlur stdDeviation="2" result="coloredBlur"/>
      <feMerge>
        <feMergeNode in="coloredBlur"/>
        <feMergeNode in="SourceGraphic"/>
      </feMerge>
    </filter>
  </defs>
  
  <rect width="400" height="300" fill="url(#bg-grad-2)"/>
  
  <g filter="url(#glow-2)">
    <path d="M60 80 L180 80 L180 120 L340 120 L340 180 L180 180 L180 220 L60 220 L60 160 L120 160 L120 140 L60 140 Z" 
          fill="none" stroke="url(#neon-cyan)" stroke-width="2"/>
    
    <path d="M60 80 L40 60" stroke="url(#neon-green)" stroke-width="1.5"/>
    <path d="M340 120 L360 100" stroke="url(#neon-green)" stroke-width="1.5"/>
    <path d="M340 180 L360 200" stroke="url(#neon-green)" stroke-width="1.5"/>
    <path d="M60 220 L40 240" stroke="url(#neon-green)" stroke-width="1.5"/>
    
    <circle cx="60" cy="80" r="5" fill="#00ffff" filter="url(#glow-2)"/>
    <circle cx="340" cy="120" r="5" fill="#00ffff" filter="url(#glow-2)"/>
    <circle cx="340" cy="180" r="5" fill="#00ffff" filter="url(#glow-2)"/>
    <circle cx="60" cy="220" r="5" fill="#00ffff" filter="url(#glow-2)"/>
    
    <rect x="80" y="95" width="80" height="10" fill="url(#neon-green)" opacity="0.6"/>
    <rect x="200" y="135" width="120" height="10" fill="url(#neon-green)" opacity="0.6"/>
    <rect x="80" y="195" width="80" height="10" fill="url(#neon-green)" opacity="0.6"/>
    
    <line x1="200" y1="80" x2="200" y2="220" stroke="url(#neon-cyan)" stroke-width="1" opacity="0.5"/>
    <line x1="60" y1="150" x2="340" y2="150" stroke="url(#neon-cyan)" stroke-width="1" opacity="0.5"/>
  </g>
  
  <g opacity="0.2">
    <rect x="20" y="20" width="360" height="260" fill="none" stroke="#00ff80" stroke-width="1"/>
    <path d="M20 20 L40 20 M380 20 L360 20 M380 280 L360 280 M20 280 L40 280" stroke="#00ff80" stroke-width="2"/>
  </g>
  
  <text x="200" y="275" text-anchor="middle" font-family="monospace" font-size="12" fill="#00ffff" opacity="0.8">GITHUB HOME</text>
</svg>